<svg xmlns="http://www.w3.org/2000/svg" width="400" height="826" viewBox="0 0 400 826">
<style>
  text { font-family: "Consolas", "DejaVu Sans Mono", "Courier New", monospace; }
  .label { font-size: 13px; font-weight: bold; fill: #333; }
  .annotation { font-size: 11px; fill: #666; }
  .outer { fill: #e8e8e8; stroke: #999; stroke-width: 1; }
  .inner { fill: #6ba3d6; stroke: #2c6faa; stroke-width: 1.5; }
  .content-fill { fill: #6ba3d6; }
  .extend-fill { fill: #b8d4ee; stroke: #7baed0; stroke-width: 1; stroke-dasharray: 4,2; }
  .arrow { stroke: #666; stroke-width: 1.5; fill: none; marker-end: url(#arrowhead); }
  .arrowhead { fill: #666; }
  @media (prefers-color-scheme: dark) {
    .label { fill: #e0e0e0; }
    .annotation { fill: #aaa; }
    .outer { fill: #2d2d2d; stroke: #555; }
    .inner { fill: #3a72a4; stroke: #5a9fd4; }
    .content-fill { fill: #3a72a4; }
    .extend-fill { fill: #2a4a65; stroke: #4a7a9e; }
    .arrow { stroke: #888; }
    .arrowhead { fill: #888; }
  }
</style>
<defs>
  <marker id="arrowhead" markerWidth="8" markerHeight="6" refX="8" refY="3" orient="auto">
    <polygon points="0 0, 8 3, 0 6" class="arrowhead"/>
  </marker>
</defs>
<text x="200" y="44" class="label" text-anchor="middle">Source  801×601</text>
<rect x="66.7" y="52.0" width="266.6" height="200.0" class="outer" rx="2"/>
<rect x="66.7" y="52.0" width="266.6" height="200.0" class="inner" rx="2"/>
<line x1="200" y1="260.0" x2="200" y2="294.0" class="arrow"/>
<text x="200" y="316" class="label" text-anchor="middle">Canvas  816×608</text>
<rect x="65.8" y="324.0" width="268.4" height="200.0" class="outer" rx="2"/>
<rect x="65.8" y="324.0" width="263.5" height="197.7" class="inner" rx="1"/>
<text x="200" y="538.0" class="annotation" text-anchor="middle">place at (0, 0), bg Transparent</text>
<line x1="200" y1="532.0" x2="200" y2="566.0" class="arrow"/>
<text x="200" y="588" class="label" text-anchor="middle">Extend  816×608</text>
<rect x="65.8" y="596.0" width="268.4" height="200.0" class="outer" rx="2"/>
<rect x="65.8" y="596.0" width="263.5" height="197.7" class="content-fill"/>
<rect x="329.3" y="596.0" width="4.9" height="197.7" class="extend-fill"/>
<rect x="65.8" y="793.7" width="268.4" height="2.3" class="extend-fill"/>
<text x="200" y="810.0" class="annotation" text-anchor="middle">content 801×601, edges replicated</text>
</svg>
